<svg width="999" height="662" viewBox="0 0 999 662" fill="none" xmlns="http://www.w3.org/2000/svg">
<path d="M601.871 -81.7091C723.473 -72.892 985.048 6.46215 997.458 86.4362C1005.28 136.844 964.474 166.64 910.776 184.151C859.975 200.717 822.221 201.359 786.268 240.889C727.824 305.148 803.587 415.885 776.812 463.111C741.985 524.537 664.316 475.852 601.871 508.816C526.419 548.647 529.019 650.302 444.266 660.117C370.69 668.637 333.568 626.613 272.477 579.739C215.688 536.165 179.537 477.075 110.144 494.632C51.8218 509.388 62.753 585.423 7.70119 609.683C-123.027 667.292 -94.7788 429.94 -90.6424 287.141C-88.5271 214.115 -76.2041 139.103 -50.6125 70.6758C0.651688 -66.3956 254.303 -106.911 601.871 -81.7091Z" fill="#F0F9F7"/>
</svg>
