<svg xmlns="http://www.w3.org/2000/svg" version="1.1" xmlns:xlink="http://www.w3.org/1999/xlink" xmlns:svgjs="http://svgjs.dev/svgjs" viewBox="0 0 14.254741409762833 7.743063499118302"><g transform="matrix(1,0,0,1,7.500735550859922,3.1314002495591504)"><rect width="14.254741409762833" height="14.254741409762833" x="-7.500735550859922" y="-6.387239204881416" fill="#ffffff"></rect><g><path d=" M 0.13342199999999999 2.188842 L 0.27225299999999997 2.152782 C 0.21636 1.9544520000000003 0.183906 1.7344860000000004 0.183906 1.5992610000000003 C 0.183906 1.3594620000000004 0.407478 1.3324170000000004 0.733821 1.4279760000000004 C 0.7608659999999999 1.3901130000000004 0.8005319999999999 1.2909480000000004 0.8005319999999999 1.2007980000000003 C 0.8005319999999999 1.0277100000000003 0.719397 0.7915170000000004 0.47418899999999997 0.7915170000000004 C 0.349782 0.7915170000000004 0.218163 0.8618340000000003 0.12621 1.0565580000000003 L 0.23799599999999999 1.1178600000000003 C 0.301101 0.9988620000000004 0.37502399999999997 0.9375600000000004 0.465174 0.9375600000000004 C 0.600399 0.9375600000000004 0.677928 1.0872090000000003 0.665307 1.2512820000000002 C 0.403872 1.1917830000000005 0.036059999999999995 1.2206310000000005 0.036059999999999995 1.5902460000000003 C 0.036059999999999995 1.7128500000000004 0.07031699999999999 1.9526490000000003 0.13342199999999999 2.188842 M 1.0367408466796875 1.4802630000000003 L 1.1827838466796876 1.4802630000000003 L 1.1467238466796874 0.19292100000000034 L 1.0006808466796875 0.19292100000000034 M 1.2602256899414064 1.8985590000000003 C 1.4405256899414063 1.8534840000000004 1.7272026899414064 1.6803960000000002 1.7776866899414063 1.4099460000000004 C 1.8155496899414063 1.4568240000000003 1.8750486899414063 1.4892780000000003 1.9670016899414065 1.4892780000000003 C 2.019288689941406 1.4892780000000003 2.0571516899414064 1.4514150000000003 2.0571516899414064 1.4117490000000004 C 2.0571516899414064 1.3738860000000004 2.0355156899414064 1.3414320000000004 1.9850316899414064 1.3414320000000004 C 1.8912756899414065 1.3414320000000004 1.8407916899414065 1.3125840000000004 1.8083376899414063 1.2080100000000003 C 1.7812926899414063 1.1196630000000003 1.7344146899414064 0.9970590000000004 1.6677036899414064 0.8690460000000003 L 1.5360846899414065 0.9357570000000004 C 1.5991896899414064 1.0439370000000003 1.6604916899414064 1.1701470000000003 1.6604916899414064 1.2873420000000004 C 1.6604916899414064 1.4532180000000003 1.5577206899414064 1.6443360000000002 1.2079386899414064 1.7615310000000002 M 1.9633886469726562 0.4886130000000004 C 2.109431646972656 0.39666000000000046 2.311367646972656 0.2758590000000003 2.6250896469726563 0.10998300000000039 L 2.5746056469726564 4.440892098500626e-16 C 2.264489646972656 0.16227000000000036 2.0355086469726564 0.3029040000000003 1.8966776469726563 0.38764500000000046 M 1.9651916469726562 1.4892780000000003 L 2.1148406469726564 1.4892780000000003 C 2.3816846469726562 1.4892780000000003 2.493470646972656 1.4387940000000004 2.565590646972656 1.3342200000000004 C 2.6539376469726563 1.4658390000000003 2.7927686469726565 1.4892780000000003 2.881115646972656 1.4892780000000003 C 2.933402646972656 1.4892780000000003 2.971265646972656 1.4514150000000003 2.971265646972656 1.4117490000000004 C 2.971265646972656 1.3738860000000004 2.949629646972656 1.3414320000000004 2.899145646972656 1.3414320000000004 C 2.8360406469726565 1.3414320000000004 2.7044216469726563 1.3270080000000004 2.630498646972656 1.1863740000000003 C 2.507894646972656 0.9537870000000004 2.3492306469726563 0.8149560000000003 2.149097646972656 0.6454740000000003 C 2.300549646972656 0.5409000000000004 2.515106646972656 0.44353800000000043 2.7260576469726563 0.3389640000000005 L 2.6647556469726563 0.20554200000000034 C 2.408729646972656 0.3317520000000005 2.149097646972656 0.4525530000000004 2.0535386469726564 0.5553240000000004 C 2.0282966469726564 0.5823690000000004 2.015675646972656 0.6346560000000003 2.015675646972656 0.6887460000000004 C 2.015675646972656 0.7464420000000004 2.461016646972656 1.0529520000000003 2.461016646972656 1.2260400000000002 C 2.461016646972656 1.2855390000000004 2.4213506469726562 1.3414320000000004 2.1220526469726564 1.3414320000000004 L 1.9832216469726562 1.3414320000000004 M 3.3607057236328126 0.7843050000000004 C 3.409386723632813 0.7843050000000004 3.4490527236328123 0.7446390000000004 3.4490527236328123 0.6959580000000004 C 3.4490527236328123 0.6472770000000003 3.409386723632813 0.6058080000000003 3.3607057236328126 0.6058080000000003 C 3.3102217236328126 0.6058080000000003 3.2705557236328127 0.6472770000000003 3.2705557236328127 0.6959580000000004 C 3.2705557236328127 0.7446390000000004 3.3102217236328126 0.7843050000000004 3.3607057236328126 0.7843050000000004 M 3.1136947236328125 0.7843050000000004 C 3.1623757236328127 0.7843050000000004 3.2020417236328127 0.7446390000000004 3.2020417236328127 0.6959580000000004 C 3.2020417236328127 0.6472770000000003 3.1623757236328127 0.6058080000000003 3.1136947236328125 0.6058080000000003 C 3.0632107236328125 0.6058080000000003 3.0235447236328126 0.6472770000000003 3.0235447236328126 0.6959580000000004 C 3.0235447236328126 0.7446390000000004 3.0632107236328125 0.7843050000000004 3.1136947236328125 0.7843050000000004 M 2.8793047236328126 1.4892780000000003 C 3.0650137236328128 1.4892780000000003 3.1551637236328127 1.4694450000000003 3.2254807236328125 1.3702800000000004 C 3.2525257236328127 1.4496120000000003 3.3174337236328126 1.4892780000000003 3.5518237236328125 1.4892780000000003 C 3.6041107236328127 1.4892780000000003 3.6419737236328125 1.4514150000000003 3.6419737236328125 1.4117490000000004 C 3.6419737236328125 1.3738860000000004 3.6203377236328125 1.3414320000000004 3.5698537236328125 1.3414320000000004 C 3.2903887236328124 1.3414320000000004 3.2994037236328126 1.2873420000000004 3.2994037236328126 1.2152220000000002 C 3.2994037236328126 1.1575260000000003 3.322842723632813 1.0619670000000003 3.337266723632813 0.9970590000000004 L 3.1966327236328125 0.9700140000000004 C 3.1353307236328125 1.2891450000000004 3.1371337236328127 1.3414320000000004 2.8973347236328126 1.3414320000000004 M 3.549995192871094 1.4892780000000003 C 3.6852201928710944 1.4892780000000003 3.7753701928710943 1.4730510000000003 3.8366721928710943 1.3666740000000004 C 3.8763381928710943 1.4694450000000003 3.975503192871094 1.4892780000000003 4.051229192871094 1.4892780000000003 C 4.197272192871094 1.4892780000000003 4.267589192871094 1.4712480000000003 4.325285192871094 1.3829010000000004 C 4.357739192871094 1.4550210000000003 4.426253192871094 1.4892780000000003 4.548857192871094 1.4892780000000003 C 4.666052192871094 1.4892780000000003 4.770626192871094 1.4568240000000003 4.819307192871094 1.3306140000000004 C 4.858973192871094 1.4207640000000004 4.947320192871095 1.4892780000000003 5.082545192871094 1.4892780000000003 C 5.1348321928710945 1.4892780000000003 5.172695192871094 1.4514150000000003 5.172695192871094 1.4117490000000004 C 5.172695192871094 1.3738860000000004 5.151059192871094 1.3414320000000004 5.100575192871094 1.3414320000000004 C 4.904048192871095 1.3414320000000004 4.875200192871095 1.2458730000000005 4.846352192871095 0.8582280000000003 L 4.714733192871094 0.8672430000000003 C 4.7327631928710945 1.0168920000000004 4.736369192871094 1.1052390000000003 4.736369192871094 1.1881770000000003 C 4.736369192871094 1.2927510000000004 4.685885192871094 1.3414320000000004 4.565084192871094 1.3414320000000004 C 4.422647192871095 1.3414320000000004 4.401011192871094 1.2981600000000004 4.401011192871094 1.2458730000000005 C 4.401011192871094 1.1845710000000003 4.422647192871095 1.0619670000000003 4.433465192871094 0.9970590000000004 L 4.296437192871094 0.9718170000000004 C 4.242347192871094 1.3252050000000004 4.2153021928710945 1.3414320000000004 4.072865192871094 1.3414320000000004 C 3.9520641928710942 1.3414320000000004 3.914201192871094 1.3053720000000004 3.914201192871094 1.2458730000000005 C 3.914201192871094 1.1773590000000003 3.939443192871094 1.0836030000000003 3.953867192871094 1.0223010000000003 L 3.8186421928710943 0.9844380000000004 C 3.7429161928710943 1.3288110000000004 3.7212801928710943 1.3414320000000004 3.568025192871094 1.3414320000000004 M 5.482767174316407 0.39125100000000046 C 5.531448174316407 0.39125100000000046 5.571114174316406 0.3515850000000005 5.571114174316406 0.3029040000000003 C 5.571114174316406 0.2542230000000003 5.531448174316407 0.21275400000000033 5.482767174316407 0.21275400000000033 C 5.432283174316407 0.21275400000000033 5.392617174316406 0.2542230000000003 5.392617174316406 0.3029040000000003 C 5.392617174316406 0.3515850000000005 5.432283174316407 0.39125100000000046 5.482767174316407 0.39125100000000046 M 5.080698174316407 1.4892780000000003 C 5.288043174316407 1.4892780000000003 5.495388174316407 1.4766570000000003 5.607174174316406 1.4117490000000004 C 5.7496111743164064 1.3270080000000004 5.805504174316407 1.2007980000000003 5.805504174316407 1.0204980000000003 C 5.805504174316407 0.7933200000000004 5.709945174316407 0.5769600000000004 5.517024174316407 0.5769600000000004 C 5.3331181743164064 0.5769600000000004 5.214120174316407 0.7861080000000004 5.214120174316407 0.9700140000000004 C 5.214120174316407 1.1034360000000003 5.316891174316407 1.1989950000000005 5.500797174316407 1.1989950000000005 C 5.549478174316406 1.1989950000000005 5.599962174316406 1.1935860000000003 5.643234174316406 1.1791620000000003 C 5.6197951743164065 1.2476760000000002 5.574720174316407 1.2855390000000004 5.497191174316407 1.3125840000000004 C 5.412450174316406 1.3414320000000004 5.2177261743164065 1.3414320000000004 5.098728174316407 1.3414320000000004 M 5.356557174316406 0.9339540000000004 C 5.356557174316406 0.8365920000000003 5.417859174316407 0.7248060000000004 5.502600174316407 0.7248060000000004 C 5.603568174316407 0.7248060000000004 5.664870174316406 0.8600310000000003 5.664870174316406 1.0096800000000004 C 5.664870174316406 1.0186950000000004 5.664870174316406 1.0277100000000003 5.664870174316406 1.0349220000000003 C 5.6197951743164065 1.0493460000000003 5.565705174316406 1.0565580000000003 5.517024174316407 1.0565580000000003 C 5.399829174316406 1.0565580000000003 5.356557174316406 1.0096800000000004 5.356557174316406 0.9339540000000004" fill="#574848" fill-rule="nonzero"></path></g><g></g><g clip-path="url(#SvgjsClipPath1003)"><path d=" M -6.633407602601542 -2.2640723013007706 L -0.625 -2.2640723013007706 L -0.625 3.7443353013007714 L -6.633407602601542 3.7443353013007714 Z" fill="#d40404" transform="matrix(1,0,0,1,0,0)" fill-rule="nonzero" mask="url(#maskedIcon-6e2c073b-2ca8-43f6-959f-38ff211a95e6)"></path></g></g><defs><clipPath id="SvgjsClipPath1003"><path d=" M -6.633407602601542 -2.2640723013007706 h 6.008407602601542 v 6.008407602601542 h -6.008407602601542 Z"></path></clipPath><mask id="maskedIcon-6e2c073b-2ca8-43f6-959f-38ff211a95e6"><path d=" M -0.625 0.7401315000000004 C -0.625 2.3993075955606367 -1.9700277057401347 3.7443353013007714 -3.629203801300771 3.7443353013007714 C -5.288379896861407 3.7443353013007714 -6.633407602601542 2.3993075955606367 -6.633407602601542 0.7401315000000004 C -6.633407602601542 -0.9190445955606357 -5.288379896861407 -2.2640723013007706 -3.629203801300771 -2.2640723013007706 C -1.9700277057401347 -2.2640723013007706 -0.625 -0.9190445955606357 -0.625 0.7401315000000004 Z" fill="#ffffff" transform="matrix(1,0,0,1,0,0)" fill-rule="nonzero"></path><path d=" M -2.4328522220164857 1.0682411112825192 L -2.6819860462487175 0.7110144853680564 L -3.4031614529006857 1.955689776658044 L -2.649797000976981 1.4286010619296947 L -2.400676979937405 1.785827687844158 L -1.679473966900126 0.5411523965541698 Z" fill="NA" transform="matrix(1,0,0,1,0,0)" fill-rule="nonzero"></path><path d=" M -4.857730703102443 1.785819129394711 L -4.608610682062867 1.4285925034802482 L -3.855232426946507 1.9556950214012527 L -4.576421636791131 0.7110197301112655 L -4.825555461023362 1.0682325528330732 L -5.578933716139722 0.5411438381047233 Z" fill="NA" transform="matrix(1,0,0,1,0,0)" fill-rule="nonzero"></path><path d=" M -3.537517590272701 -0.4754289952852535 L -4.003955076474462 0.5766227425025576 L -3.6556039034372385 0.5698867844868598 L -3.642490870414876 1.3053208891515657 L -3.176053384213117 0.2532829545564099 L -3.524404557250339 0.26003271576476283 Z" fill="NA" transform="matrix(1,0,0,1,0,0)" fill-rule="nonzero"></path></mask></defs></svg>