<?xml version="1.0" encoding="utf-8"?>
<!-- Generator: Adobe Illustrator 27.5.0, SVG Export Plug-In . SVG Version: 6.00 Build 0)  -->
<svg version="1.1" id="Layer_1" xmlns="http://www.w3.org/2000/svg" xmlns:xlink="http://www.w3.org/1999/xlink" x="0px" y="0px"
	 viewBox="0 0 1133.858 850.394" style="enable-background:new 0 0 1133.858 850.394;" xml:space="preserve">
<linearGradient id="SVGID_1_" gradientUnits="userSpaceOnUse" x1="568.679" y1="850.7393" x2="568.679" y2="1.074903e-05">
	<stop  offset="0" style="stop-color:#FF0000"/>
	<stop  offset="0.1641" style="stop-color:#F50000"/>
	<stop  offset="0.4381" style="stop-color:#DC0000"/>
	<stop  offset="0.5769" style="stop-color:#CC0000"/>
	<stop  offset="1" style="stop-color:#990000"/>
</linearGradient>
<rect x="0" y="0" style="fill:url(#SVGID_1_);" width="1137.359" height="850.739"/>
<g>
	<path d="M408.557,607.362C407.108,606.196,409.874,608.675,408.557,607.362L408.557,607.362z"/>
	<path d="M296.805,600.15c0.05,0.128,0.099,0.263,0.164,0.382C297.045,599.567,296.952,599.645,296.805,600.15z"/>
	<path d="M411.174,611.034c0.007,0.026,0,0.055,0.007,0.084C411.393,611.294,411.509,611.372,411.174,611.034z"/>
	<path d="M296.189,603.14c-0.04,0.19-0.096,0.345-0.139,0.522C296.013,603.888,296.042,603.818,296.189,603.14z"/>
	<path d="M407.298,600.108c-0.786-0.175-1.432-0.592-1.927-1.235c0.08,0.227,0.597,0.664,1.051,1.131
		C406.688,600.116,406.974,600.166,407.298,600.108z"/>
	<path d="M1102.948,523.558c-20.797,9.713-25.326,31.006-27.109,52.183c-2.715-1.034-5.264-7.548-8.504-0.966
		c-2.516,5.129-2.408,13.218-2.631,18.782c-0.159,3.839-0.266,14.998,5.023,15.683c6.063,0.776,1.813,14.373,1.105,18.807
		c-0.93,5.898-0.313,15.424-4.41,19.786c-6.001,6.407-9.729,7.776-18.539,7.653c-2.254-0.031-4.501-0.156-6.745-0.326l0.256-0.018
		c2.359-0.949,3.305-3.42,3.66-5.666c-1.77-1.773-2.008,1.653-3.425,2.009c-1.772,1.176-4.13,0.237-5.896-0.355
		c-3.542-0.469-2.601-5.188-2.832-6.725c1.529,1.182,3.89,2.715,6.49,3.654c2.003-0.826,4.247-2.942,5.069-5.072
		c0-2.124,1.417-5.665-1.176-6.841l-0.238,5.663c-0.827,1.89-2.715,3.543-5.072,2.829c-4.842-2.479-2.598-8.492-5.073-12.147
		c-1.772-3.193-5.431-4.254-8.852-4.487c-5.784,0.233-3.425-6.37-6.726-8.85c-3.775-2.124-8.38-5.544-12.745-2.474
		c-0.475-1.896-2.003-1.896-3.423-2.601c-1.063-2.949,2.361-0.826,3.066-2.244c0-5.9,6.021-8.608,8.263-13.565
		c2.595-4.487-2.007-10.274,3.892-12.746c0.594-3.898-2.004-6.606-1.415-10.502c0.472-2.717,0-6.023,2.601-7.675
		c0.35-1.653-2.246-1.174-1.655-3.063c1.655-2.01,1.532-5.195,1.063-7.667c0-3.07-3.775-2.722-4.839-5.08
		c1.771-2.122,4.483-4.358,4.011-7.667c-2.357-5.551-8.377-6.969-13.922-7.438c0.355-4.837-5.666-5.779-8.97-7.553
		c-1.885-3.065-4.367-5.891-7.671-7.075c0.709-1.888,3.541-4.603,0.237-5.664c-0.707,0.472-0.944,1.297-1.416,1.887
		c-4.37,3.422-8.023-2.129-11.562-4.253c-4.959,0.121-10.741-0.235-15.342,1.419c-7.08,4.603-11.919-5.188-18.999-0.235
		c-2.832,0.356-4.602,3.419-5.073,5.906c-2.357,1.883-5.313,0-8.143,0.585c-1.654,0.355-2.24,2.009-2.359,3.419
		c3.421,5.196-4.486,6.256-5.076,10.503c-0.088,0.612-0.282,1.133-0.533,1.603c-0.479,0.549-0.944,1.103-1.396,1.675
		c-1.692,1.44-4.02,2.314-5.149,4.04c-8.377,1.887-0.824,12.513-8.731,14.514c-2.298,3.755,0.626,4.232,3.511,5
		c-0.945,7.69,0.137,15.576,2.404,23.079c-1.11,1.574-2.574,2.878-4.498,3.543c-3.896,6.025,4.129,10.979,7.078,15.338
		c0.943,2.602-0.355,5.073-2.241,6.848l0.235,0.236l3.069-2.83c1.533-1.889-0.357-4.488,0.589-6.256
		c1.322,0.662,2.44,1.618,3.445,2.708c2.652,5.386,5.499,9.563,7.664,8.637c-0.01-0.016-0.018-0.044-0.023-0.058
		c-0.266-0.101-0.586-0.464-0.936-0.999c0.253,0.156,0.503,0.315,0.754,0.471c0.063,0.179,0.123,0.348,0.183,0.528
		c0.039,0.005,0.075,0.027,0.113,0.027c-0.03,0.015-0.063,0.015-0.09,0.03c0.804,2.308,1.645,4.588,2.724,6.61
		c1.194,2.237,3.3,2.566,5.62,2.671c3.592,3.43,7.204,6.756,11.705,7.832c0.329,0.876,0.605,1.773,0.838,2.656
		c1.592,6.057-4.357,9.249-8.927,12.754c-4.122,3.158-8.547,5.915-13.19,8.244c-5.615,2.82-10.912,6.322-14.907,10.908
		c-1.143-0.863-2.299-1.712-3.484-2.528c-4.548-3.125-9.366-5.852-14.402-8.105c-5.195-0.033-10.396-0.109-15.581,0.215
		c-8.183,0.521-13.276-9.508-16.654-16.093c-1.215-2.376-1.283-5.301-1.016-8.293c0.191,0.03,0.366,0.082,0.575,0.098
		c1.54-1.645,2.273-4.072,5.177-4.406c0.727-1.583-1.483-3.91-0.306-5.872c2.414,1.286,6.013,1.976,8.222,0
		c1.968,1.066,4.017-0.399,7.006,0.294c3.381-1.635,4.204-5.732,7.917-7.052c0.822-1.203,0.106-1.819,0.307-2.64
		c7.565-4.842,8.03-16.533,9.744-27.017c4.954-2.179,4.003-10.113,0-12.625c0.87-1.22,2.166-2.025,3.048-3.23
		c0.935-6.646,6.018-10.831,5.482-17.919c-2.364,0.954-3.204,3.376-6.094,3.82c-3.307,0.059-6.053-0.429-7.308-2.349
		c3.157,1.285,7.078,0.31,8.529-1.766c0.973-3.741,5.72-8.468,2.435-12.627c-2.389,1.713-0.701,7.356-4.873,7.346
		c-3.066,0.116-4.843-1.009-5.787-2.938c0.901-0.205,2.872,0.611,2.438-0.882c1.112-1.188-2.579-1.799-1.521-2.937
		c2.018,0.088,3.895,0.036,4.567-1.177c-0.188-1.578-2.267-1.337-3.046-2.348c1.924,0.39,2.512-0.515,3.35-1.173
		c-1.132-1.651-3.602-2.013-5.179-3.232c-6.819-8.302-11.112-19.046-16.448-28.778c-1.958-1.344-3.559-3.028-5.783-4.114
		c-7.787-7.786-21.216-14.152-36.85-9.984c-3.644,1.186-6.793,2.85-10.051,4.408c-4.052-0.191-5.564-0.599-9.135-0.294
		c-5.083,0.802-9.394,4.297-13.708,6.754c-3.821,4.246-8.491,7.667-10.659,13.509c-2.008,5.989-3.482,12.5-5.177,18.792
		c-1.428,0.779-2.259,2.129-3.046,3.524c-2.309,3.161-6.854,4.16-10.051,6.458c-0.137,2.19,2.399,1.8,3.957,2.357
		c-1.498,0.998-4.398,0.646-5.177,2.347c0.18,1.883,3.239,0.989,3.351,2.936c0.731,0.177,1.391,0.419,2.435,0.295
		c0.632,1.153,1.833,1.757,1.526,3.817c-1.171,0.339-1.909,1.097-3.658,0.879c-1.528-0.777-1.081-3.457-3.956-2.939
		c-0.393,2.959,2.679,5.035,4.263,7.051c-0.903,1.867-2.313,3.252-2.436,5.87c0.407,2.355,2.308,3.261,3.045,5.292
		c-1.304,4.318,0.941,7.415,1.828,10.571c-2.199,0.949-3.456-2.573-5.483-0.882c0.282,2.961,3.636,2.957,4.263,5.579
		c-1.437,1.705-2.811-1.13-4.565,0c-0.871,1.124,0.732,1.895,0.912,2.933c-2.163,2.451,0.591,5.763,1.524,7.932
		c-3.361,0.67-5.845,8.907-1.221,10.274c2.44-1.165,1.873-5.242,4.569-6.165c0.744,3.093,1.534,5.273,0.915,9.107
		c3.538-0.111,2.909-4.242,5.176-5.578c1.601,2.274,3.232,5.744,3.654,8.219c5.564,1.308,8.405-2.938,13.419-4.333
		c-0.099,1.029-0.181,1.894-0.206,2.458c-0.222,4.743-0.695,9.962-3.244,14.106c-2.067,3.367-7.348,3.078-10.953,4.002
		c-1.417,0.363-2.825,0.769-4.228,1.192c-1.125-1.354-2.244-2.715-3.353-4.084c-6.561-8.087-9.49-17.441-17.778-24.558
		c-8.377-7.192-18.537-11.982-28.904-15.544c-4.704-1.62-9.484-2.988-14.303-4.217c-5.473-1.386-17.454,1.951-20.386-3.064
		c-1.509-2.591-2.497-5.438-3.639-8.2c-3.611-0.046-7.219-0.129-10.817-0.37c-3.259-0.227-6.508-0.595-9.717-1.205
		c-1.283-2.568-2.539-5.16-3.694-7.795c-2.019-4.623-3.702-9.39-4.819-14.323c-0.744-3.291-1.235-6.627-1.488-9.992
		c1.69-2.109,2.888-4.573,3.724-7.134c1.52-4.638,1.91-9.646,1.464-14.488c-0.651-7.079-6.912-9.348-7.643-15.101
		c-2.806-22.115-11.831-40.529-35.188-44.09c-6.029-0.916-10.212-2.584-16.302-1.337c-5.504,1.124-10.928,2.766-15.995,5.207
		c-9.335,4.492-16.896,11.77-21.149,21.273c-3.639,8.11-3.502,16.611-2.916,25.168c-0.711-0.46-1.624-0.74-2.851-0.74
		c-6.14,2.485-9.934-3.396-16.07-0.912c-4.962-2.743-13.194,0-17.514-5.359c-4.045-1.304-7.445,1.568-10.318-2.477
		c-2.616-0.788-5.355,3.394-6.926-0.395c0.784-1.568,1.96-3.923,0.655-5.618c-4.181-2.354-10.192,5.225-11.631-2.744
		c-1.305-1.572-4.177,0.127-4.701-2.613c-1.178-0.393-1.439,0.785-1.308,1.565c-0.391,1.048,0.652,1.699,1.308,1.961
		c1.699-0.656,4.05,0.786,4.701,2.484c-0.13,1.306,1.438,1.438,2.223,2.219c3.27,2.09,5.228-3.268,8.36-0.65
		c-1.435,1.828-0.522,5.353-3.656,6.008c-2.353,0.395-3.658-1.83-5.354-2.872c-2.746,0-5.62,0.389-7.582-1.57
		c-0.913,1.702,1.698,3.134,2.874,3.787c1.7,0.655,3.528-1.436,4.708,0.655c-2.225,2.61-4.84-1.309-7.192,0.916
		c-3.79-1.178-7.966-0.916-10.449,1.828c2.74,1.171,5.094-1.044,7.577-0.259c-0.523,1.43-1.827,2.742-3.397,3.394
		c-7.056-3.269-9.669,5.099-16.722,2.482c-0.915,0.523-2.091,1.827-1.178,2.877c1.7-0.917,4.442-1.441,6.273-0.261
		c-1.307,1.827-0.525,4.439-2.873,5.876c-7.58-2.875-11.239,5.881-17.25,7.842c-1.962,1.695-2.615,4.048-3.134,6.271
		c3.4,1.695,1.96-3.53,4.439-4.706c1.307-1.435,2.876-2.091,4.706-2.482c1.044,1.434-3.134,2.089-0.39,3.14
		c0.909,0.387,1.566-0.784,2.221,0c-1.178,3.002-4.965,2.347-7.451,3.786c-3.006,1.827-1.435,7.706-6.268,6.534
		c-3.659,0-1.962,3.134-2.877,5.354c-2.351,1.439-5.353,3.268-5.353,6.012c0.52,0.523,1.042,1.173,1.957,0.914
		c-0.652-1.44,0.391-3.139,1.832-3.788h1.306c0.65,1.305-0.132,2.614-0.652,3.788c-4.315,1.308-4.705,5.879-5.622,9.406
		c0,0.916,1.05,0.782,1.569,1.177c-0.784-5.749,4.573-7.838,6.793-11.891c2.877,5.229-3.918,9.146-5.616,13.455
		c-1.829,1.182-1.566,3.138-2.223,4.708c-3.007,2.217-5.616,5.485-4.706,9.141c4.968,1.833-0.91,5.622,1.048,8.758
		c-1.306,2.088-4.311,1.048-4.706,3.788c-2.481,3.922,4.706,4.571,1.571,8.494c-0.13,1.435,0.522,2.61,0.257,4.053
		c-1.96,2.217-4.177,5.353-7.575,4.961c-2.089-0.784-0.913-3.001,0-4.049c0.785-0.651,1.83-1.306,0.656-2.226
		c-2.615,0-3.266,3.008-4.311,4.706c0.392,1.831,1.309,3.137,3.134,3.793c1.178,0.911,3.787-0.525,4.309,1.305
		c-1.301,1.699-2.611,4.31-2.479,6.533c1.957,0.91,0,3.658,2.479,4.049c-0.521,3.268,1.828,5.877,3.788,7.577
		c1.572-3.266-4.44-5.226-0.912-8.492h2.742c-3.518,3.863,2.433,8.412-0.495,12.197c-2.681-1.429-5.6-2.389-8.724-2.768
		c-4.06-0.488-7.445,0.982-10.741-1.758c-3.112-2.593-5.687-5.741-8.598-8.544c0.126-0.496,1.623,0.075,1.63,0.091
		c-0.572-1.913-4.053-2.244-4.621-4.942c0.966-0.75,2.818,2.394,3.78,2.528c0.108-0.226,0.129-0.453,0.108-0.664
		c-0.376-0.325-1.029-0.947-0.157-0.239c0.062,0.063,0.104,0.104,0.15,0.155c-0.308-1.852-4.695-3.165-4.982-5.373
		c2.372,0.535,2.954,3.352,5.671,3.804c-3.014-2.378-5.706-5.325-6.417-9.228c0.827,0.041,1.307,0.466,1.435,1.292
		c0.531-0.366,0.089-0.967-0.458-1.525c-2.09-0.912-2.563-6.525-3.638-6.929c2.149,1.259,0.685,1.394,1.984,3.094
		c0.795-1.496-7.849-12.223-8.94-14.13c-3.705-6.467-3.285-12.546-4.186-19.869c-1.45-11.722-4.229-23.393-9.251-34.126
		c-4.322-9.222-10.351-17.632-18.083-24.312c-3.662-3.162-7.774-6.836-12.532-7.329c-2.166-0.234-4.34-0.552-6.483,0.204
		c-3.59,1.235-4.779-1.243-7.361-3.509c-9.573-8.382-22.351,2.782-27.834,10.584c-6.931,9.871-12.585,20.653-15.602,32.382
		c-3.574,13.918-2.507,27.928-1.465,42.085c0.551,7.499,1.038,15.027,0.754,22.554c0.068,3.324-1.187,11.396-3.844,13.423
		c2.556,2.09,3.316-3.988,3.983-5.282c0.897-1.721,1.642-3.277,2.124-5.182c0.079-0.51,0.499-2.641,0.755-3.512
		c-1.203-3.035,1.83-7.413,0.04-10.547c0.162,3.051-0.993-3.794-0.29-5.459c5.231,11.202,9.507,31.613,2.391,43.204
		c-2.02-1.643-3.884-3.559-5.617-5.587c-5.309-4.024-13.356-0.963-17.381-8.048c-2.093-3.38-4.508,0.323-6.931,0.323
		c-13.034,2.093-21.405-8.372-33.96-6.118c-4.186-5.476-15.611-5.476-12.879-15.133c4.987-4.987,7.731-11.757,10.141-18.196
		c9.017-5.955,5.955-18.35,11.594-26.558c4.017-5.795-4.831-10.143,0.316-15.458c1.453-9.177,3.223-17.224,3.539-26.243l1.938-2.736
		c0.801-4.987,0-6.272-0.477-11.266c-3.707-0.321-1.931-5.316-4.999-6.601c-1.286,0.484-2.893-0.486-4.186-1.124
		c-1.123-4.992-4.985-9.662-7.401-14.979c-3.063,0.168-6.602-1.447-8.533-4.34c-4.986,2.093-4.347-4.992-9.178-4.192
		c-6.44,1.456-12.88-2.73-19.32-2.406c-5.309,2.247-9.656,4.183-15.933,2.73c-2.579,1.133-4.348,2.578-6.118,4.995
		c-4.993,0.16-7.731,5.476-11.916,7.407c-2.901,6.602-10.141,11.263-9.011,19.317c-0.807,2.896-3.546,0.324-5.321,1.609
		c-1.279,1.131,0.807,2.255-0.478,3.378h-0.646v1.938c5.316-0.328,2.101,6.108,4.186,8.21c-2.255,3.538,1.13,8.039-0.323,10.779
		c-1.932,2.261,2.254,6.923-2.738,6.602c-2.571,1.768-5.471,4.19-4.341,8.054c4.993,8.362,6.116,18.35,9.333,27.367
		c7.893,1.446,7.253,10.465,9.34,16.257c-2.254,4.67-2.732,9.978-3.54,15.132c-7.247,14.65-26.082,10.949-38.638,17.706
		c-6.781-0.529-13.354,1.588-19.901,2.825c-0.067-1.888-0.222-3.764-0.309-5.662c1.782,1.45,3.759,2.475,5.755,2.678
		c2.205,0.958,4.558,0.256,6.787-3.222c0.411-0.649-0.606-1.376-1.1-0.783c-1.751,2.104-3.765,2.826-5.774,2.635
		c-1.373-0.777-2.509-2.348-3.239-3.648c-0.325-0.59-0.612-1.192-0.899-1.795c1.228-0.568,2.285-1.337,3.196-2.241
		c3.952-3.424,6.467-8.515,4.981-13.905c-1.063-3.853-3.454-6.375-5.661-9.61c-2.007-2.939-3.45-6.277-2.576-9.932
		c0.01-0.043,0.026-0.068,0.038-0.108c1.045,2.031,2.418,3.857,4.266,5.34c0.225,0.185,0.453,0.323,0.681,0.478
		c1.405,2.4,3.259,4.511,6.142,3.973c4.692-0.877,5.707-6.667,6.393-10.601c0.146-0.82-0.986-1.054-1.248-0.285
		c-1.348,4.025-5.076,9.119-10.035,6.123c-0.085-0.05-0.16-0.103-0.238-0.156c-0.553-0.97-1.043-2.028-1.661-3.085
		c-0.632-1.081-2.228-4.49-4.013-4.24c-1.005-3.565-1.545-7.24-1.76-10.937c-0.141-2.314-0.263-4.635-0.222-6.954
		c0.007-0.474,0.041-0.812,0.097-1.037c1.651,4.728,4.27,9.228,7.838,13.736c0.53,0.669,1.632,0.035,1.15-0.717
		c-3.03-4.684-4.862-9.985-8.399-14.305c-0.281-0.891-0.536-1.783-0.721-2.702c-0.673-3.31-0.999-6.684-0.723-10.054
		c0.214-2.602,0.771-3.709,1.438-3.84c0.122,2.212,0.618,4.333,2.807,6.08c0.489,0.387,0.849,0.675,1.194,0.94
		c1.356,3.461,3.201,6.269,7.77,5.469c0.564-0.101,0.577-0.835,0.271-1.178c-1.932-2.115-4.631-3.25-6.832-4.956
		c-0.355-0.997-0.667-2.02-1.052-3.01c-0.689-1.806-1.47-3.445-2.765-4.58c0.075-0.996,0.229-2.049,0.219-3.324
		c-0.041-3.429-2.612-6.143-5.535-7.433c-2.029-0.903-4.479-0.999-6.352-2.267c-1.051-0.711-1.248-1.129-0.995-1.438
		c0.485-0.182,0.952-0.395,1.405-0.635c0.534-0.166,1.117-0.348,1.585-0.609c1.961-1.113,2.697-2.968,2.734-4.915
		c0.131-1.053-0.027-2.189-0.542-3.384c-0.01-0.024-0.016-0.047-0.02-0.075c-0.005,0-0.005,0-0.008,0.006
		c-0.028-0.059-0.047-0.111-0.072-0.175c-0.359-0.763-1.579-0.16-1.327,0.609c-1.932,2.669-3.87,5.335-5.809,8
		c-0.146,0.009-0.278,0.076-0.393,0.158c-0.478,0.079-0.949,0.129-1.407,0.138c-3.996,0.076-6.877-1.828-8.915-5.152
		c-1.944-3.162-3.595-6.202-6.626-8.464c-7.438-5.545-22.077-1.83-29.811,1.278c-0.468-0.581-1.002-1.108-1.599-1.574
		c-0.442-0.346-1.058-0.096-1.073,0.489c0.003,0.049,0,0.099,0,0.151l-0.703-0.04c0.007-0.065-0.009-0.138-0.084-0.169
		c-6.677-2.603-16.662-6.495-23.287-1.504c-2.887,2.175-4.879,4.995-6.071,8.423c-0.921,2.638-1.496,5.275-2.036,8.004
		c-0.34,1.744-0.64,3.914-1.592,5.428c-1.037,1.06-1.976,1.838-2.83,2.364v8.746c3.317-0.715,2.021,2.251,0,3.522v92.528
		c1.029,1.31,1.687,2.653,2.103,4.03c-0.7,0.284-1.401,0.566-2.103,0.848v70.139v23.741v126.881h986.513h150.846V700.607V520.474
		C1126.382,517.234,1114.404,518.204,1102.948,523.558z M1013.076,554.842c1.178,0.358,2.357,1.533,2.24,2.83l-0.354,3.184
		C1012.959,559.915,1012.842,557.201,1013.076,554.842z M1002.221,538.799c4.248-0.593,7.788,0.467,10.5,3.305
		c1.297,1.289,2.479,3.298,1.182,4.838l-3.185,2.828l-8.733-10.504L1002.221,538.799z M905.777,560.614
		c-0.826-0.214-1.639-0.52-2.322-0.935c-0.668-2.251,1.961-2.614,3.396-3.933C906.392,557.358,906.037,558.982,905.777,560.614z
		 M910.533,544.69c0.04,0.876-0.022,1.681-0.172,2.45c-0.623,1.189-1.203,2.401-1.731,3.643c-0.112,0.135-0.219,0.269-0.338,0.398
		C908.174,548.707,908.055,545.872,910.533,544.69z M911.124,600.157c-2.241-1.183-4.724-2.957-6.019-5.309
		c-0.709-1.538-1.65-3.306-0.236-4.844l2.24-1.182C906.757,593.074,912.3,595.789,911.124,600.157z M896.185,548.542
		c-0.238,0.955-2.311,1.67-3.349,0.882C893.027,548.233,894.85,548.624,896.185,548.542z M888.269,596.403
		c0.243-0.247,0.832-0.171,0.912-0.587c0.295,1.065-0.181,3.062-1.218,3.232C887.315,598.336,888.685,597.797,888.269,596.403z
		 M888.269,599.342c-0.012,0.288-0.373,0.229-0.61,0.292C887.665,599.354,888.03,599.408,888.269,599.342z M881.564,608.741
		c0.754-0.041,1.47-0.043,1.83,0.29c-0.04,0.941-0.689,1.295-1.83,1.177C881.564,609.72,881.564,609.23,881.564,608.741z
		 M879.739,604.631c0.104,2.156-0.797,3.341-1.219,4.988c-2.893-0.271-4.59-3.165-4.87-4.988
		C876.059,605.419,878.082,604.75,879.739,604.631z M861.389,612.049c1.109,1.77,1.913,3.833,3.427,5.207
		c-2.47,0.642-4.182-1.213-4.798-3.53C860.42,613.217,860.872,612.674,861.389,612.049z M409.131,609.614
		C411.602,611.471,407.636,608.859,409.131,609.614L409.131,609.614z M408.028,606.02
		C409.344,607.341,406.58,604.854,408.028,606.02L408.028,606.02z M294.102,606.613
		C294.283,606.417,293.821,606.931,294.102,606.613L294.102,606.613z M294.484,605.229
		C294.203,605.54,294.664,605.023,294.484,605.229L294.484,605.229z M295.345,604.268
		C295.06,604.579,295.525,604.063,295.345,604.268L295.345,604.268z M295.522,581.92c-0.09-0.594-0.244-3.283,0.355-1.835
		C295.974,580.671,296.125,583.359,295.522,581.92z M305.886,631.059c0.538,0.042,1.288-0.147,1.388,0.382
		C306.738,631.39,305.984,631.581,305.886,631.059z M441.456,620.073c-0.651-0.394-0.783-1.045-0.651-1.567
		C441.719,618.374,441.327,619.423,441.456,620.073z M440.805,613.41l1.826-2.482C443.023,612.498,442.239,613.541,440.805,613.41z
		 M304.189,630.715c0.329,0.035,0.704,0.019,0.768,0.346C304.699,630.949,304.442,630.836,304.189,630.715z M1027.232,631.9
		c1.067,1.297,2.361,3.185,2.483,4.245h-0.595c-0.471-0.705-2.239-4.48-4.721-4.245
		C1025.465,631.535,1026.054,631.535,1027.232,631.9z M1023.945,634.521c-0.676,0.086-1.363,0.37-1.963,0.783
		c-0.834-0.107-1.656-0.243-2.479-0.405C1021.119,633.852,1022.515,634.471,1023.945,634.521z M972.012,515.785
		c1.059,0.945,2.477,1.765,3.303,2.834c-2.596,2.358-6.252,0.235-8.968-0.593c-2.201-0.306-4.399-1.352-6.745-1.089
		C963.546,516.089,967.969,514.928,972.012,515.785z M582.175,569.512l-1.829,0.391c-1.832-0.13-2.486-1.566-2.486-3.136
		c4.965-5.877-3.398-10.451-1.045-16.067c0.232,0.442,0.515,0.789,0.823,1.085c1.482,2.591,3.049,5.138,4.406,7.654
		c-0.258,0.499-0.602,0.955-1.044,1.318C578.514,563.762,581.257,566.767,582.175,569.512z M580.602,573.302
		c-0.522,0.916-1.434,2.091-2.479,2.222c-0.913-1.179-1.962-2.745-1.565-4.053L580.602,573.302z M574.989,576.695l-0.654-2.478
		C574.857,575,575.644,576.309,574.989,576.695z M569.37,611.188l0.649,2.616c-0.392,1.174-2.089,1.565-3.134,0.91
		c0-0.391,0-0.78-0.391-0.91C567.408,612.888,568.193,611.714,569.37,611.188z M583.35,562.027c0.071,0.151,0.149,0.304,0.219,0.455
		c0.729,1.601,1.631,3.963,2.708,6.582c-1.383-0.898-2.73-1.986-3.188-3.866C582.822,564.038,582.98,563.004,583.35,562.027z
		 M558.655,609.096c1.308-1.955,4.053-1.564,6.273-1.564c1.175,0.128,2.479,0.521,1.957,2.091c-1.567,1.566-3.268,3.527-5.354,2.876
		C560.486,611.317,558.264,611.06,558.655,609.096z M562.184,620.595c-1.44,0.265-3.007-0.128-3.786-0.915
		c0.913-0.651,2.479,0.132,3.391-0.651L562.184,620.595z M557.479,613.41c0.652,0.262,1.567,0.787,1.832,1.568
		c-0.265,0.656-0.789,0.262-1.31,0.392C557.221,615.24,556.955,613.935,557.479,613.41z M555.257,623.471v3.135
		c-0.391,1.048-1.439,1.698-2.479,1.565v-1.828C553.426,625.302,553.69,623.6,555.257,623.471z M553.69,609.357l-0.39,1.311
		c-0.523,0.129-0.786-0.262-1.177-0.652C552.387,609.751,553.036,609.229,553.69,609.357z M549.901,615.37
		c0.261-0.655,0.781-0.261,1.303-0.392v1.306h-1.042C549.771,616.023,549.901,615.635,549.901,615.37z M542.719,615.635h3.787
		c-0.524,3.526-7.061,6.791-2.878,10.971c0.789,5.619,6.923-1.042,6.534,5.358c0.918,3.136,1.962,6.273,3.785,9.016
		c0.655,0.13,1.699,0,1.31-0.921c0.134-3-4.963-7.966,0.918-9.008c3.267,0.129,2.347,4.964,6.009,4.309
		c1.178,3.267-3.138,6.013-4.183,9.146l0.654,0.655c3.265-2.744,7.575-6.534,6.008-11.367c-0.912-2.874-3.006-5.623-5.617-7.451
		c0.131-4.701,4.572-0.389,5.883-3.523l0.39-4.052c2.09-0.261,6.01,0.913,6.79-2.224c2.095-6.792-4.438-13.845,3.142-18.156
		c0.394-3.397-3.006-5.751-2.091-9.147c2.091,1.175,3.266,4.574,4.7,6.924c0.131,2.353,0,5.49-2.216,6.927
		c-1.049,0.131-2.228-0.781-3.139,0c0.779,1.305,2.873,1.568,4.31,0.917c1.963-1.44,2.875-3.923,2.875-6.535
		c-0.263-5.49-9.017-10.711-2.223-15.678c1.96,1.568,3.533,6.138,6.274,4.704c-0.397-1.959-3.919-3.269-2.221-5.357
		c3.135,1.306,7.709,1.698,7.574,6.271c-1.174,3.397-4.572,1.046-6.92,1.305c0,0.788,1.037,2.223,2.223,2.748
		c3.523,0.779,5.484-2.225,6.926-4.317c0.517-2.479,0.386-5.352-1.31-7.315c-1.44-3.523-11.236-0.256-6.536-5.225
		c1.045,0,1.963,0.393,2.485-0.651l0.648-0.653c0.685-0.1,1.439,1.615,2.265,1.634c2.961,6.079,6.793,11.64,11.506,11.126
		c6.595-0.708,7.235-0.421,8.635,5.935c0.242,1.475,0.765,2.854,1.576,4.111c-1.686,2.848-3.182,5.808-4.342,8.917
		c-2.046,5.467-2.33,8.87-7.579,12.118c-3.848,2.378-6.989,4.247-9.541,8.079c-4.734,7.125-10.813,12.946-13.818,21.154
		c-1.729,4.698-2.459,9.7-2.32,14.693c0.141,5.068-1.477,9.809-2.578,14.763c-6.258-7.153-14.632-13.389-18.944-21.006
		c-3.134-8.1-7.842-15.546-8.106-24.823C537.879,626.215,541.672,620.334,542.719,615.635z M546.764,623.471l-0.65-0.652
		c-0.132-0.26,0.128-0.393,0.393-0.654L546.764,623.471z M451.386,536.974c-0.128-1.822,1.833-1.172,2.877-1.3l-0.655,2.873
		C452.17,539.46,451.648,538.284,451.386,536.974z M452.691,630.657l0.916-3.79c2.74,2.616,0.916,6.4,1.961,9.803
		c-1.442,1.828-1.178,4.702,1.176,5.877c0.522,0.522,1.046,1.305,1.956,1.041c0.914-0.388,0.653-1.697,0.263-2.216
		c-0.521-0.786-2.085-1.313-1.567-2.485c0.395-1.041,1.437-0.52,2.219-0.65c4.184,2.216,0,5.352-0.651,7.837
		c-1.843,2.043-3.515,4.156-5.049,6.327c-0.853-4.627-2.136-9.132-4.057-13.084C450.927,636.515,454.805,634.785,452.691,630.657z
		 M446.421,562.066l0.263,2.088c-0.263,0-0.655,0-0.914,0.391C445.77,563.634,445.896,562.717,446.421,562.066z M444.203,618.506
		c-0.13-0.911-0.918-1.963-0.656-2.612h1.046L444.203,618.506z M443.547,581.141l-0.262-0.26c-0.262-0.787-0.654-2.355,0.262-2.616
		C444.461,578.917,444.593,580.881,443.547,581.141z M440.805,569.902c0-1.829,1.435-3.265,2.742-4.178l-0.916,5.093
		C441.848,570.951,440.938,570.687,440.805,569.902z M438.321,587.672c-0.652-0.653-1.697-1.307-1.311-2.482
		c0.788-1.437,2.618-1.57,4.052-1.827l0.394,2.48C440.805,586.885,439.496,587.672,438.321,587.672z M438.841,592.769
		c0.524-0.787,0.133-2.354,1.568-2.222c0,1.957,3.007,4.702,0.396,5.616C439.108,595.771,439.365,593.941,438.841,592.769z
		 M440.805,627.262l0.076,1.462c-0.424-0.292-0.847-0.583-1.285-0.849C439.941,627.573,440.342,627.346,440.805,627.262z
		 M417.131,622.859C417.315,622.663,416.851,623.178,417.131,622.859L417.131,622.859z M417.638,623.743
		c-0.363-0.085-0.9,0.034-0.938-0.402C417.06,623.425,417.6,623.306,417.638,623.743z M395.238,622.663
		c0.075,0.411-0.06,0.713-0.403,0.926c-0.268-0.339-0.59-0.622-0.956-0.854C394.315,622.346,394.768,622.323,395.238,622.663z
		 M394.258,621.343c-0.36-0.087-0.895,0.033-0.933-0.41C393.684,621.018,394.223,620.898,394.258,621.343z M393.396,622.302
		C392.968,624.125,392.774,620.53,393.396,622.302L393.396,622.302z M380.303,564.649
		C379.869,566.47,379.682,562.877,380.303,564.649L380.303,564.649z M310.432,630.817c0.037,0.127,3.043,0.572,1.962,2.628
		c-0.074-0.189-0.381-0.226-0.712-0.169c-0.293-0.255-0.606-0.501-0.965-0.727c-0.393-0.036-0.78-0.089-1.165-0.148
		C309.99,631.59,310.398,630.884,310.432,630.817z M307.819,624.57C307.389,626.398,307.196,622.798,307.819,624.57L307.819,624.57z
		 M307.458,630.41c-0.096-0.043-0.294-0.128-0.652-0.285C307.058,630.234,307.328,630.351,307.458,630.41z M303.645,606.107
		c0.036,0.662,0.373,3.712-0.329,2.293C303.283,607.736,302.94,604.691,303.645,606.107z M303.652,614.762
		c0.919,5.176,4.237,8.198,2.732,12.979c0.083,0.021,0.162,0.034,0.243,0.091c-0.009,0.071-0.196,0.234-0.405,0.424
		c-0.125,0.316-0.264,0.643-0.432,0.982c-0.634-0.042-0.031-0.579,0.432-0.982c0.064-0.177,0.108-0.344,0.162-0.515
		c-1.065-0.324-2.028,1.119-2.827,2.663c-1.415-0.729-2.759-1.613-4.043-2.61C302.462,624.98,302.613,617.979,303.652,614.762z
		 M98.63,601.921c-0.021,0.197-0.053,0.396-0.072,0.594C98.486,602.01,98.486,601.732,98.63,601.921z M104.613,584.433
		c3.034,4.913,2.298,11.983-1.866,15.865c-0.759,0.615-1.576,1.188-2.487,1.702c-0.246-0.596-0.497-1.189-0.696-1.81
		c-0.2-0.622-1.196-0.635-1.314,0.049c-0.254,1.4-0.328,2.779-0.332,4.149c-2.268-2.656-3.795-6.08-3.727-8.886
		C94.255,592.845,100.122,577.13,104.613,584.433z M37.873,498.292c0,0.194-0.013,0.348-0.023,0.484
		c-0.037-0.046-0.071-0.093-0.099-0.134C37.815,498.547,37.873,498.437,37.873,498.292z"/>
</g>
</svg>
