<svg width="30" height="30" viewBox="0 0 30 30" fill="none" xmlns="http://www.w3.org/2000/svg">
<path d="M24.8851 29.625C26.5651 29.625 27.6301 29.055 28.3051 28.38C29.6251 27.06 30.5551 24.255 27.5851 18.3L26.2801 15.705C26.1151 15.36 26.1151 14.64 26.2801 14.295L27.5851 11.7C30.5701 5.745 29.6251 2.925 28.3051 1.62C27.0001 0.300002 24.1801 -0.644998 18.2401 2.34L5.40008 8.76C2.20508 10.35 0.450077 12.57 0.450077 15C0.450077 17.43 2.20508 19.65 5.38508 21.24L18.2251 27.66C21.1351 29.115 23.2951 29.625 24.8851 29.625ZM24.8851 2.625C25.6951 2.625 26.3251 2.82 26.7151 3.21C27.8101 4.29 27.3751 7.095 25.5751 10.68L24.2701 13.29C23.7901 14.265 23.7901 15.735 24.2701 16.71L25.5751 19.305C27.3751 22.905 27.8101 25.695 26.7151 26.775C25.6351 27.87 22.8301 27.435 19.2301 25.635L6.39008 19.215C4.03508 18.045 2.70008 16.5 2.70008 14.985C2.70008 13.47 4.05008 11.925 6.40508 10.755L19.2451 4.35C21.5251 3.21 23.4901 2.625 24.8851 2.625Z" fill="white"/>
</svg>
