<svg width="20" height="20" viewBox="0 0 20 20" fill="none" xmlns="http://www.w3.org/2000/svg">
<path d="M13.977 6.9064L6.9059 13.9775C6.66431 14.2191 6.26361 14.2191 6.02202 13.9775C5.78043 13.7359 5.78043 13.3352 6.02202 13.0936L13.0931 6.02251C13.3347 5.78092 13.7354 5.78092 13.977 6.02251C14.2186 6.26411 14.2186 6.6648 13.977 6.9064Z" fill="#0A2341"/>
<path d="M13.977 13.9775C13.7354 14.2191 13.3347 14.2191 13.0931 13.9775L6.02202 6.90642C5.78043 6.66482 5.78043 6.26413 6.02202 6.02254C6.26361 5.78094 6.66431 5.78094 6.9059 6.02254L13.977 13.0936C14.2186 13.3352 14.2186 13.7359 13.977 13.9775Z" fill="#0A2341"/>
</svg>
