<svg width="28" height="28" viewBox="0 0 28 28" fill="none" xmlns="http://www.w3.org/2000/svg">
<path d="M0.5 14C0.5 11.1807 0.500604 9.10381 0.665963 7.4783C0.830472 5.86115 1.1539 4.74627 1.76398 3.83322C2.31117 3.0143 3.0143 2.31117 3.83322 1.76398C4.74627 1.1539 5.86115 0.830472 7.4783 0.665963C9.10381 0.500604 11.1807 0.5 14 0.5C16.8193 0.5 18.8962 0.500604 20.5217 0.665963C22.1389 0.830472 23.2537 1.1539 24.1668 1.76398C24.9857 2.31117 25.6888 3.0143 26.236 3.83322C26.8461 4.74627 27.1695 5.86115 27.334 7.4783C27.4994 9.10381 27.5 11.1807 27.5 14C27.5 16.8193 27.4994 18.8962 27.334 20.5217C27.1695 22.1389 26.8461 23.2537 26.236 24.1668C25.6888 24.9857 24.9857 25.6888 24.1668 26.236C23.2537 26.8461 22.1389 27.1695 20.5217 27.334C18.8962 27.4994 16.8193 27.5 14 27.5C11.1807 27.5 9.10381 27.4994 7.4783 27.334C5.86115 27.1695 4.74627 26.8461 3.83322 26.236C3.0143 25.6888 2.31117 24.9857 1.76398 24.1668C1.1539 23.2537 0.830472 22.1389 0.665963 20.5217C0.500604 18.8962 0.5 16.8193 0.5 14Z" stroke="#0A2341"/>
<path d="M15.9995 19.78C15.8729 19.78 15.7462 19.7333 15.6462 19.6333L11.2995 15.2867C10.5929 14.58 10.5929 13.42 11.2995 12.7133L15.6462 8.36668C15.8395 8.17335 16.1595 8.17335 16.3529 8.36668C16.5462 8.56001 16.5462 8.88001 16.3529 9.07335L12.0062 13.42C11.6862 13.74 11.6862 14.26 12.0062 14.58L16.3529 18.9267C16.5462 19.12 16.5462 19.44 16.3529 19.6333C16.2529 19.7267 16.1262 19.78 15.9995 19.78Z" fill="#0A2341"/>
</svg>
