<svg width="64" height="70" viewBox="0 0 64 70" fill="none" xmlns="http://www.w3.org/2000/svg">
<g filter="url(#filter0_d_33824_32789)">
<rect width="64" height="64" rx="16" fill="white"/>
<path d="M38.2 43.6667C38.1867 43.6667 38.16 43.6667 38.1467 43.6667C37.6 43.6667 37.1467 43.2134 37.16 42.6534C37.16 42.1067 37.6133 41.6667 38.16 41.6667C38.1733 41.6667 38.2 41.6667 38.2133 41.6667C39.7333 41.6667 41.1867 41.1067 42.3067 40.0667C44.3733 38.2534 44.52 35.6667 43.96 33.84C43.4 32.0134 41.8533 29.9467 39.1467 29.6C38.7067 29.5467 38.36 29.2134 38.28 28.7734C37.7467 25.5867 36.0267 23.3867 33.44 22.5867C30.7467 21.76 27.64 22.5734 25.6933 24.6134C23.8 26.6 23.36 29.36 24.4533 32.4134C24.64 32.9334 24.3733 33.5067 23.8533 33.6934C23.3333 33.88 22.76 33.6134 22.5733 33.0934C21.2267 29.3467 21.84 25.76 24.2533 23.24C26.72 20.6667 30.64 19.64 34.04 20.6934C37.1467 21.6534 39.3467 24.2134 40.1333 27.76C42.8533 28.3734 45.0267 30.4267 45.8933 33.2667C46.84 36.36 45.9733 39.5334 43.6667 41.56C42.1467 42.92 40.2133 43.6667 38.2 43.6667Z" fill="#0A2341"/>
<path d="M23.4267 43.6666C23.4 43.6666 23.3733 43.6666 23.36 43.6666C19.52 43.4 17.7733 40.3867 17.7733 37.7067C17.7733 35.0267 19.52 32.0267 23.36 31.7467C24.3467 31.7333 25.32 31.96 26.1733 32.3866C26.6667 32.64 26.8533 33.24 26.6133 33.7333C26.36 34.2266 25.76 34.4133 25.2667 34.1733C24.7067 33.88 24.0667 33.76 23.4533 33.7466C20.9333 33.9333 19.7867 35.8667 19.7867 37.7067C19.7867 39.5466 20.9333 41.48 23.52 41.6666C24.0667 41.7066 24.48 42.1866 24.44 42.7333C24.3867 43.2666 23.9467 43.6666 23.4267 43.6666Z" fill="#0A2341"/>
<path d="M37.0933 30.187C36.7333 30.187 36.3733 29.987 36.2 29.627C35.9467 29.1336 36.1467 28.5336 36.6533 28.2803C37.4667 27.867 38.3867 27.6403 39.2933 27.627C39.8133 27.6536 40.3067 28.0536 40.3067 28.6136C40.32 29.1603 39.88 29.627 39.32 29.627C38.7067 29.6403 38.0933 29.787 37.5333 30.067C37.4 30.1603 37.24 30.187 37.0933 30.187Z" fill="#0A2341"/>
<path d="M33.2933 43.667H27.96C27.4133 43.667 26.96 43.2137 26.96 42.667C26.96 42.1203 27.4133 41.667 27.96 41.667H33.2933C33.84 41.667 34.2933 42.1203 34.2933 42.667C34.2933 43.2137 33.8533 43.667 33.2933 43.667Z" fill="#0A2341"/>
<path d="M30.6267 46.3333C30.08 46.3333 29.6267 45.88 29.6267 45.3333V40C29.6267 39.4533 30.08 39 30.6267 39C31.1733 39 31.6267 39.4533 31.6267 40V45.3333C31.6267 45.88 31.1867 46.3333 30.6267 46.3333Z" fill="#0A2341"/>
</g>
<defs>
<filter id="filter0_d_33824_32789" x="0" y="0" width="64" height="70" filterUnits="userSpaceOnUse" color-interpolation-filters="sRGB">
<feFlood flood-opacity="0" result="BackgroundImageFix"/>
<feColorMatrix in="SourceAlpha" type="matrix" values="0 0 0 0 0 0 0 0 0 0 0 0 0 0 0 0 0 0 127 0" result="hardAlpha"/>
<feMorphology radius="6" operator="erode" in="SourceAlpha" result="effect1_dropShadow_33824_32789"/>
<feOffset dy="6"/>
<feGaussianBlur stdDeviation="3"/>
<feColorMatrix type="matrix" values="0 0 0 0 0 0 0 0 0 0 0 0 0 0 0 0 0 0 0.16 0"/>
<feBlend mode="normal" in2="BackgroundImageFix" result="effect1_dropShadow_33824_32789"/>
<feBlend mode="normal" in="SourceGraphic" in2="effect1_dropShadow_33824_32789" result="shape"/>
</filter>
</defs>
</svg>
